<svg preserveAspectRatio="none" width="100%" height="100%" overflow="visible" style="display: block;" viewBox="0 0 13 9" fill="none" xmlns="http://www.w3.org/2000/svg">
<g id="bxl-youtube">
<path id="Shape" fill-rule="evenodd" clip-rule="evenodd" d="M11.0957 0.266831C11.6286 0.407877 12.0483 0.821244 12.1913 1.34513C12.4568 2.30131 12.4444 4.29487 12.4444 4.29487C12.4444 4.29487 12.4425 6.27745 12.1851 7.23302C12.0402 7.75629 11.6186 8.16905 11.0864 8.30948C10.1127 8.55982 6.2172 8.55555 6.2172 8.55555C6.2172 8.55555 2.33231 8.55128 1.34865 8.28872C0.815159 8.14768 0.395455 7.73431 0.252445 7.21104C-0.00248531 6.26463 9.10028e-07 4.27167 9.10028e-07 4.27167C9.10028e-07 4.27167 0.00248896 2.28848 0.259285 1.33231C0.403539 0.809032 0.835056 0.386506 1.35735 0.246682C2.33169 -0.00426947 6.22653 4.63793e-06 6.22653 4.63793e-06C6.22653 4.63793e-06 10.122 0.00427877 11.0957 0.266831ZM4.98356 2.4454L4.98045 6.10892L8.22118 4.28021L4.98356 2.4454Z" fill="var(--fill-0, white)"/>
</g>
</svg>
