<svg preserveAspectRatio="none" width="100%" height="100%" overflow="visible" style="display: block;" viewBox="0 0 37 37" fill="none" xmlns="http://www.w3.org/2000/svg">
<g id="Linkedin">
<path id="Oval 10 Copy 3" opacity="0.25" fill-rule="evenodd" clip-rule="evenodd" d="M18.25 35.75C27.915 35.75 35.75 27.915 35.75 18.25C35.75 8.58502 27.915 0.75 18.25 0.75C8.58502 0.75 0.75 8.58502 0.75 18.25C0.75 27.915 8.58502 35.75 18.25 35.75Z" stroke="var(--stroke-0, white)" stroke-width="1.5"/>
<g id="ic Linkedin">
<path id="Oval" d="M14.2337 14.7171C15.053 14.7171 15.7172 14.0529 15.7172 13.2335C15.7172 12.4142 15.053 11.75 14.2337 11.75C13.4143 11.75 12.7501 12.4142 12.7501 13.2335C12.7501 14.0529 13.4143 14.7171 14.2337 14.7171Z" fill="var(--fill-0, white)"/>
<path id="Shape" d="M15.4698 15.7081H12.9973C12.8608 15.7081 12.75 15.8189 12.75 15.9554V23.3731C12.75 23.5096 12.8608 23.6204 12.9973 23.6204H15.4698C15.6063 23.6204 15.7171 23.5096 15.7171 23.3731V15.9554C15.7171 15.8189 15.6063 15.7081 15.4698 15.7081Z" fill="var(--fill-0, white)"/>
<path id="Shape_2" d="M22.8382 15.2967C21.7814 14.9348 20.4596 15.2527 19.6668 15.8229C19.6396 15.7166 19.5427 15.6375 19.4275 15.6375H16.9549C16.8184 15.6375 16.7077 15.7482 16.7077 15.8847V23.3025C16.7077 23.439 16.8184 23.5497 16.9549 23.5497H19.4275C19.564 23.5497 19.6748 23.439 19.6748 23.3025V17.9716C20.0743 17.6274 20.5891 17.5176 21.0104 17.6966C21.4189 17.8692 21.6528 18.2905 21.6528 18.8518V23.3025C21.6528 23.439 21.7636 23.5497 21.9001 23.5497H24.3727C24.5092 23.5497 24.6199 23.439 24.6199 23.3025V18.3538C24.5917 16.3219 23.6358 15.5697 22.8382 15.2967Z" fill="var(--fill-0, white)"/>
</g>
</g>
</svg>
