<svg preserveAspectRatio="none" width="100%" height="100%" overflow="visible" style="display: block;" viewBox="0 0 171 34" fill="none" xmlns="http://www.w3.org/2000/svg">
<path id="Vector" d="M9.35182 3.39314C11.5919 3.39314 13.4181 4.09381 14.8305 5.49521C16.2429 6.89661 16.9491 8.75042 16.9491 11.0567V23.7354H12.6788V11.7684C12.6788 10.4001 12.3091 9.32975 11.5698 8.55733C10.8415 7.78492 9.85389 7.39869 8.60699 7.39869C7.29389 7.39869 6.24008 7.80144 5.44559 8.60699C4.66211 9.40148 4.27038 10.4663 4.27038 11.8015V23.7354H0V0H4.27038V5.46212C5.48419 4.0828 7.178 3.39314 9.35182 3.39314ZM49.755 23.7354H45.4846V0H49.755V23.7354ZM69.5511 6.14076V0H73.8215V23.7354H69.7499V21.1202C69.0435 22.0692 68.1223 22.814 66.9855 23.3547C65.86 23.8844 64.602 24.1492 63.2117 24.1492C61.3359 24.1492 59.6253 23.7078 58.0808 22.8251C56.5359 21.9313 55.3164 20.6899 54.4227 19.1009C53.5287 17.5119 53.0821 15.7353 53.0821 13.7712C53.0821 11.8181 53.5287 10.047 54.4227 8.45801C55.3164 6.86903 56.5359 5.62763 58.0808 4.73381C59.6253 3.84004 61.3359 3.39314 63.2117 3.39314C64.5028 3.39314 65.6944 3.63589 66.7867 4.1214C67.8905 4.60695 68.8117 5.28004 69.5511 6.14076ZM63.6257 20.1436C65.413 20.1436 66.8973 19.5367 68.0778 18.323C69.2588 17.0981 69.849 15.5588 69.849 13.705C69.849 11.8622 69.2588 10.3339 68.0778 9.12009C66.8973 7.90627 65.413 7.29936 63.6257 7.29936C61.86 7.29936 60.3812 7.90627 59.1897 9.12009C58.0088 10.3339 57.4185 11.8622 57.4185 13.705C57.4185 15.5588 58.0088 17.0981 59.1897 18.323C60.3812 19.5367 61.86 20.1436 63.6257 20.1436ZM90.3901 10.1836H88.6935V8.48699H87.0071V6.79042H81.0694V5.09386H88.6935V6.79042H90.3901V10.1836ZM87.8554 23.7354H79.3728V22.0492H77.6863V17.8078H79.3728V20.3526H81.0694V22.0492H86.1588V20.3526H87.8554V16.9595H86.1588V15.2629H82.7655V13.5664H79.3728V11.8801H77.6863V8.48699H79.3728V6.79042H81.0694V10.1836H82.7655V11.8801H86.1588V13.5664H89.5418V15.2629H91.2384V20.3526H89.5418V22.0492H87.8554V23.7354ZM100.58 33.9045H93.8037V32.2079H95.4901V8.48699H93.8037V6.79042H95.4901V5.09386H97.1867V3.39729H98.8833V6.79042H100.58V8.48699H98.8833V20.3526H100.58V22.0492H98.8833V32.2079H100.58V33.9045ZM107.356 23.7354H100.58V22.0492H105.659V20.3526H107.356V16.9595H109.052V11.8801H107.356V8.48699H105.659V6.79042H100.58V5.09386H107.356V6.79042H109.052V8.48699H110.749V11.8801H112.445V16.9595H110.749V20.3526H109.052V22.0492H107.356V23.7354ZM132.783 23.7354H129.391V22.0492H126.007V20.3526H127.694V13.5664H126.007V11.8801H127.694V8.48699H126.007V6.79042H120.918V8.48699H119.221V10.1836H115.838V8.48699H117.525V6.79042H119.221V5.09386H127.694V6.79042H129.391V8.48699H131.087V22.0492H132.783V23.7354ZM126.007 15.2629H120.918V13.5664H126.007V15.2629ZM126.007 23.7354H119.221V22.0492H117.525V20.3526H115.838V16.9595H117.525V15.2629H120.918V16.9595H119.221V20.3526H120.918V22.0492H126.007V23.7354ZM148.011 23.7354H139.539V22.0492H137.842V20.3526H136.146V16.9595H134.46V11.8801H136.146V8.48699H137.842V6.79042H139.539V5.09386H148.011V6.79042H149.708V8.48699H151.405V10.1836H148.011V8.48699H146.315V6.79042H141.235V8.48699H139.539V11.8801H137.842V16.9595H139.539V20.3526H141.235V22.0492H148.011V23.7354ZM151.405 20.3526H149.708V18.6561H151.405V20.3526ZM149.708 22.0492H148.011V20.3526H149.708V22.0492ZM167.501 23.7354H159.029V22.0492H157.332V20.3526H155.635V16.9595H153.949V11.8801H155.635V8.48699H157.332V10.1836H167.501V8.48699H165.805V6.79042H159.029V5.09386H167.501V6.79042H169.198V8.48699H170.894V11.8801H157.332V16.9595H159.029V20.3526H160.725V22.0492H167.501V23.7354ZM159.029 8.48699H157.332V6.79042H159.029V8.48699ZM170.894 20.3526H169.198V18.6561H170.894V20.3526ZM169.198 22.0492H167.501V20.3526H169.198V22.0492Z" fill="var(--fill-0, #F5F7FA)"/>
</svg>
