<svg preserveAspectRatio="none" width="100%" height="100%" overflow="visible" style="display: block;" viewBox="0 0 35 35" fill="none" xmlns="http://www.w3.org/2000/svg">
<g id="insta">
<path id="Oval Copy" opacity="0.25" d="M17.5 0.844727C26.6986 0.844727 34.1553 8.30139 34.1553 17.5C34.1553 26.6986 26.6986 34.1553 17.5 34.1553C8.30139 34.1553 0.844727 26.6986 0.844727 17.5C0.844727 8.30139 8.30139 0.844727 17.5 0.844727Z" stroke="var(--stroke-0, white)" stroke-width="1.68889"/>
<g id="16px-logo-instagram">
<path id="Oval" d="M20.1193 15.5108C20.4544 15.5108 20.726 15.2391 20.726 14.9041C20.726 14.569 20.4544 14.2974 20.1193 14.2974C19.7843 14.2974 19.5126 14.569 19.5126 14.9041C19.5126 15.2391 19.7843 15.5108 20.1193 15.5108Z" fill="var(--fill-0, white)"/>
<path id="Shape" d="M17.4996 14.9723C18.8935 14.9723 20.0277 16.1057 20.0279 17.4996C20.0279 18.8937 18.8937 20.0279 17.4996 20.0279C16.1057 20.0277 14.9723 18.8935 14.9723 17.4996C14.9725 16.1059 16.1059 14.9725 17.4996 14.9723ZM17.4996 16.2359C16.8029 16.2361 16.2362 16.8029 16.2359 17.4996C16.2359 18.1965 16.8028 18.764 17.4996 18.7642C18.1966 18.7642 18.7643 18.1966 18.7643 17.4996C18.764 16.8027 18.1965 16.2359 17.4996 16.2359Z" fill="var(--fill-0, white)"/>
<path id="Shape_2" d="M20.0274 12.4446C21.3266 12.4446 22.5555 13.6728 22.5558 14.9719V20.0276C22.5558 21.3268 21.3267 22.5559 20.0274 22.5559H14.9718C13.6727 22.5556 12.4444 21.3267 12.4444 20.0276V14.9719C12.4447 13.6729 13.6728 12.4448 14.9718 12.4446H20.0274ZM14.9718 13.7082C14.3811 13.7085 13.7083 14.3812 13.7081 14.9719V20.0276C13.7081 20.6297 14.3696 21.2909 14.9718 21.2912H20.0274C20.6183 21.2912 21.2921 20.6184 21.2921 20.0276V14.9719C21.2919 14.3811 20.6182 13.7082 20.0274 13.7082H14.9718Z" fill="var(--fill-0, white)"/>
</g>
</g>
</svg>
