<svg width="77" height="76" viewBox="0 0 77 76" fill="none" xmlns="http://www.w3.org/2000/svg">
<path d="M5.46577 47.2211C-1.96679 42.8941 -1.78204 32.0948 5.79417 28.0246L18.935 20.9648C20.9138 19.9017 22.5197 18.2583 23.5368 16.2556L28.7354 6.01919C32.6994 -1.78609 43.7497 -2.0585 48.0934 5.54198L54.4861 16.7276C55.4606 18.4327 56.8737 19.8457 58.5789 20.8201L71.4202 28.1582C78.6607 32.2957 78.8437 42.6706 71.7537 47.061L58.2423 55.4276C56.752 56.3504 55.5039 57.616 54.6018 59.119L47.9683 70.1715C43.5686 77.502 32.8541 77.2309 28.8308 69.6872L23.4452 59.5894C22.4837 57.7867 21.0393 56.2874 19.2736 55.2595L5.46577 47.2211Z" fill="#BFD9FF"/>
</svg>
